<?xml version="1.0" encoding="UTF-8" standalone="no"?>
<!DOCTYPE svg PUBLIC "-//W3C//DTD SVG 1.1//EN" "http://www.w3.org/Graphics/SVG/1.1/DTD/svg11.dtd">
<svg xmlns="http://www.w3.org/2000/svg" version="1.1" viewBox="0.00 0.00 500.00 500.00">
<g stroke-width="2.00" fill="none" stroke-linecap="butt">
<path stroke="#ed89a1" vector-effect="non-scaling-stroke" d="
  M 288.75 386.73
  C 291.39 380.61 289.27 373.72 282.46 372.16
  C 272.96 369.98 266.36 378.60 269.97 387.26
  C 273.63 396.05 282.42 392.60 289.89 393.05
  Q 290.51 393.09 290.52 392.47
  L 290.54 387.94
  A 0.46 0.45 -83.8 0 0 290.19 387.49
  L 288.98 387.19
  Q 288.59 387.09 288.75 386.73"
/>
<path stroke="#ed89a1" vector-effect="non-scaling-stroke" d="
  M 221.33 381.78
  C 225.23 378.52 223.65 372.72 218.49 372.47
  Q 213.80 372.25 205.50 372.71
  Q 204.98 372.74 204.98 373.26
  L 205.00 391.76
  Q 205.00 392.79 206.03 392.80
  Q 210.74 392.84 215.75 392.74
  C 219.74 392.66 222.98 392.01 223.98 387.92
  C 224.57 385.48 223.53 383.65 221.40 382.49
  Q 220.84 382.19 221.33 381.78"
/>
<path stroke="#ed89a1" vector-effect="non-scaling-stroke" d="
  M 253.47 382.48
  A 0.35 0.34 -52.8 0 1 253.39 381.87
  C 257.27 379.13 256.28 372.98 251.50 372.55
  Q 246.32 372.10 237.75 372.76
  Q 237.26 372.80 237.26 373.29
  L 237.32 391.94
  A 0.87 0.86 89.7 0 0 238.19 392.81
  C 242.50 392.78 251.30 393.79 254.51 391.06
  C 257.25 388.74 257.37 383.90 253.47 382.48"
/>
<path stroke="#ed89a1" vector-effect="non-scaling-stroke" d="
  M 279.3169 388.3777
  A 5.84 2.88 91.6 0 0 282.3589 382.6204
  A 5.84 2.88 91.6 0 0 279.6431 376.7023
  A 5.84 2.88 91.6 0 0 276.6011 382.4596
  A 5.84 2.88 91.6 0 0 279.3169 388.3777"
/>
<path stroke="#ed89a1" vector-effect="non-scaling-stroke" d="
  M 212.57 377.39
  L 212.55 380.31
  A 0.66 0.66 0.0 0 0 213.20 380.98
  L 213.77 380.98
  A 2.43 1.99 0.5 0 0 216.22 379.02
  L 216.22 378.76
  A 2.43 1.99 0.5 0 0 213.81 376.74
  L 213.24 376.74
  A 0.66 0.66 0.0 0 0 212.57 377.39"
/>
<path stroke="#ed89a1" vector-effect="non-scaling-stroke" d="
  M 213.06 384.66
  L 212.71 387.36
  A 0.76 0.76 0.0 0 0 213.37 388.21
  L 213.91 388.28
  A 2.31 1.95 7.3 0 0 216.45 386.64
  L 216.50 386.30
  A 2.31 1.95 7.3 0 0 214.45 384.07
  L 213.91 384.00
  A 0.76 0.76 0.0 0 0 213.06 384.66"
/>
<path stroke="#ed89a1" vector-effect="non-scaling-stroke" d="
  M 245.00 377.35
  L 244.98 380.39
  A 0.62 0.62 0.0 0 0 245.60 381.01
  L 245.84 381.02
  A 2.54 1.82 0.3 0 0 248.39 379.21
  L 248.39 378.57
  A 2.54 1.82 0.3 0 0 245.86 376.74
  L 245.62 376.73
  A 0.62 0.62 0.0 0 0 245.00 377.35"
/>
<path stroke="#ed89a1" vector-effect="non-scaling-stroke" d="
  M 245.36 384.66
  L 245.13 387.45
  A 0.73 0.73 0.0 0 0 245.80 388.24
  L 246.25 388.28
  A 2.29 1.99 4.8 0 0 248.70 386.49
  L 248.73 386.21
  A 2.29 1.99 4.8 0 0 246.61 384.03
  L 246.15 383.99
  A 0.73 0.73 0.0 0 0 245.36 384.66"
/>
</g>
<path fill="#fefefe" d="
  M 241.0583 116.7746
  A 11.24 7.83 87.0 0 1 232.6507 105.9598
  A 11.24 7.83 87.0 0 1 239.8817 94.3254
  A 11.24 7.83 87.0 0 1 248.2893 105.1402
  A 11.24 7.83 87.0 0 1 241.0583 116.7746
  Z
  M 240.8489 113.1304
  A 7.49 3.60 87.1 0 0 244.0654 105.4679
  A 7.49 3.60 87.1 0 0 240.0911 98.1696
  A 7.49 3.60 87.1 0 0 236.8746 105.8321
  A 7.49 3.60 87.1 0 0 240.8489 113.1304
  Z"
/>
<path fill="#fefefe" d="
  M 274.79 101.35
  Q 273.74 102.05 273.87 103.32
  C 274.15 105.98 279.17 108.16 279.88 111.81
  C 281.26 118.87 273.11 121.98 268.45 116.80
  A 1.37 1.36 -39.7 0 1 268.64 114.81
  L 269.51 114.14
  Q 270.08 113.71 270.61 114.19
  C 274.49 117.80 278.41 114.06 274.76 110.72
  C 271.72 107.93 267.38 103.96 270.80 99.65
  C 273.73 95.96 279.22 97.02 281.88 100.51
  Q 282.18 100.91 282.03 101.40
  Q 281.62 102.75 280.40 102.77
  C 278.41 102.81 276.97 99.90 274.79 101.35
  Z"
/>
<path fill="#fefefe" d="
  M 206.84 109.45
  Q 205.70 106.54 204.93 103.55
  A 2.26 2.26 0.0 0 1 206.92 100.74
  Q 208.66 100.59 209.24 102.58
  Q 211.67 111.00 213.67 119.19
  A 1.78 1.78 0.0 0 1 212.32 121.35
  C 210.44 121.77 209.61 120.47 208.51 119.16
  Q 205.52 115.62 202.31 112.56
  A 0.43 0.42 -78.4 0 0 201.62 113.02
  L 204.86 121.95
  Q 205.04 122.46 204.84 122.96
  Q 204.15 124.72 202.16 124.18
  Q 201.63 124.04 201.43 123.53
  L 194.92 107.21
  A 2.85 2.85 0.0 0 1 199.63 104.18
  L 205.50 110.31
  Q 208.35 113.28 206.84 109.45
  Z"
/>
<path fill="#fefefe" d="
  M 311.46 114.21
  A 1.08 1.07 -64.7 0 0 310.08 114.71
  L 303.26 128.19
  A 1.40 1.40 0.0 0 1 301.41 128.82
  Q 299.16 127.74 300.51 124.97
  Q 303.42 118.97 306.42 112.82
  A 0.92 0.91 27.3 0 0 306.03 111.62
  L 302.86 109.90
  A 0.84 0.84 0.0 0 1 302.57 108.68
  L 303.60 107.24
  A 0.84 0.83 27.7 0 1 304.58 106.94
  Q 309.60 108.80 314.31 111.33
  Q 317.06 112.80 315.91 114.84
  A 1.34 1.34 0.0 0 1 314.21 115.41
  L 311.46 114.21
  Z"
/>
<path fill="#fefefe" d="
  M 178.1964 138.0332
  A 11.24 7.80 55.5 0 1 165.4018 133.1880
  A 11.24 7.80 55.5 0 1 165.4636 119.5068
  A 11.24 7.80 55.5 0 1 178.2582 124.3520
  A 11.24 7.80 55.5 0 1 178.1964 138.0332
  Z
  M 176.1889 134.9709
  A 7.46 3.60 55.0 0 0 174.8589 126.7951
  A 7.46 3.60 55.0 0 0 167.6311 122.7491
  A 7.46 3.60 55.0 0 0 168.9611 130.9249
  A 7.46 3.60 55.0 0 0 176.1889 134.9709
  Z"
/>
<path fill="#e29d09" d="
  M 256.97 144.61
  C 259.31 138.17 265.36 133.22 261.89 125.63
  A 0.52 0.52 0.0 0 1 262.77 125.09
  C 272.52 137.05 255.94 145.40 260.63 157.26
  Q 262.07 160.89 264.06 163.97
  A 0.41 0.41 0.0 0 1 263.47 164.52
  Q 252.69 156.38 256.97 144.61
  Z"
/>
<rect fill="#fefefe" x="-2.02" y="-10.52" transform="translate(330.48,134.63) rotate(38.6)" width="4.04" height="21.04" rx="1.62"/>
<path fill="#e29d09" d="
  M 261.27 175.53
  C 257.89 171.84 253.29 167.89 250.87 164.57
  Q 242.47 152.99 254.50 142.51
  A 0.49 0.49 0.0 0 1 255.27 143.09
  C 252.05 150.01 250.01 156.05 256.52 161.97
  C 259.85 165.00 265.80 169.74 267.18 173.68
  C 269.16 179.30 264.85 181.71 260.18 185.18
  C 257.29 187.32 253.07 189.79 252.72 192.98
  Q 252.66 193.49 252.87 193.96
  L 254.56 197.66
  A 0.37 0.37 0.0 0 1 254.01 198.11
  Q 248.69 194.30 250.28 189.37
  C 251.57 185.34 258.01 180.22 261.28 176.50
  A 0.74 0.74 0.0 0 0 261.27 175.53
  Z"
/>
<path fill="#fefefe" d="
  M 133.73 153.54
  A 1.99 1.99 0.0 0 1 133.36 150.75
  L 135.70 147.71
  A 9.04 8.83 37.5 0 1 148.25 146.20
  L 150.88 148.23
  A 9.04 8.83 37.5 0 1 152.68 160.73
  L 150.34 163.78
  A 1.99 1.99 0.0 0 1 147.55 164.15
  L 133.73 153.54
  Z
  M 138.65 151.98
  L 147.58 159.29
  A 1.33 1.33 0.0 0 0 149.45 159.11
  L 149.77 158.72
  A 5.32 4.63 39.3 0 0 148.58 151.77
  L 145.83 149.51
  A 5.32 4.63 39.3 0 0 138.78 149.73
  L 138.46 150.11
  A 1.33 1.33 0.0 0 0 138.65 151.98
  Z"
/>
<path fill="#e29d09" d="
  M 187.95 160.92
  Q 183.01 168.99 188.02 176.51
  A 0.64 0.64 0.0 0 1 187.02 177.31
  Q 178.66 168.46 184.54 158.69
  C 187.67 153.49 190.57 152.01 189.70 144.93
  A 0.40 0.40 0.0 0 1 190.41 144.63
  C 194.97 150.31 191.05 155.85 187.95 160.92
  Z"
/>
<path fill="#fefefe" d="
  M 346.88 157.58
  C 344.81 158.12 341.31 160.83 339.97 158.10
  A 1.60 1.59 -25.6 0 1 340.73 155.95
  Q 348.89 152.16 357.16 149.14
  C 359.98 148.11 362.48 151.10 360.80 153.52
  Q 355.52 161.09 349.85 168.08
  A 1.34 1.34 0.0 0 1 348.32 168.48
  C 346.79 167.86 346.45 166.56 347.42 165.17
  Q 348.70 163.33 349.95 161.53
  Q 350.30 161.01 349.92 160.52
  L 347.87 157.91
  Q 347.48 157.42 346.88 157.58
  Z
  M 354.04 154.54
  L 351.90 155.44
  Q 351.27 155.71 351.49 156.35
  L 351.72 157.03
  A 0.69 0.68 61.1 0 0 352.80 157.35
  Q 353.97 156.41 354.55 155.06
  Q 354.94 154.17 354.04 154.54
  Z"
/>
<path fill="#e29d09" d="
  M 323.99 169.31
  C 322.32 174.67 325.00 175.94 328.34 179.16
  Q 329.85 180.61 327.79 180.38
  C 322.38 179.77 317.61 176.80 317.70 170.75
  C 317.79 164.51 323.23 158.86 317.83 152.30
  A 0.30 0.30 0.0 0 1 318.14 151.81
  C 326.90 154.12 326.29 161.96 323.99 169.31
  Z"
/>
<path fill="#e29d09" d="
  M 184.31 187.06
  A 0.72 0.71 -40.8 0 0 184.39 186.05
  C 180.95 182.04 174.85 175.43 174.75 169.89
  C 174.67 165.23 177.79 160.63 181.75 158.37
  A 0.62 0.62 0.0 0 1 182.53 159.32
  C 170.25 173.39 193.45 179.43 189.34 188.79
  C 187.95 191.95 182.42 194.43 179.25 196.24
  C 176.27 197.95 174.94 200.19 176.86 203.31
  A 0.67 0.67 0.0 0 1 175.79 204.10
  C 172.05 199.84 172.97 196.66 177.13 193.14
  Q 180.76 190.07 184.31 187.06
  Z"
/>
<path fill="#e29d09" d="
  M 324.60 188.79
  C 319.18 185.52 311.30 182.38 311.21 175.13
  Q 311.18 173.03 312.97 168.57
  Q 314.28 165.34 315.00 161.93
  A 0.41 0.41 0.0 0 1 315.72 161.76
  C 317.68 164.28 315.66 171.06 315.69 173.24
  C 315.78 179.73 327.38 181.67 330.46 187.02
  C 333.95 193.07 328.13 196.85 326.73 202.70
  A 0.82 0.81 40.9 0 1 325.18 202.81
  Q 325.00 202.36 325.13 201.52
  Q 325.80 197.22 326.56 193.17
  A 4.21 4.21 0.0 0 0 324.60 188.79
  Z"
/>
<path fill="#e29d09" d="
  M 250.78 181.07
  C 254.52 176.06 253.51 174.06 250.47 169.30
  A 0.45 0.45 0.0 0 1 251.08 168.67
  C 256.58 171.90 258.05 178.97 251.33 181.77
  A 0.46 0.46 0.0 0 1 250.78 181.07
  Z"
/>
<ellipse fill="#fefefe" cx="0.00" cy="0.00" transform="translate(125.69,180.38) rotate(22.9)" rx="6.28" ry="6.07"/>
<ellipse fill="#fefefe" cx="0.00" cy="0.00" transform="translate(369.86,180.37) rotate(18.7)" rx="6.29" ry="6.07"/>
<path fill="#e29d09" d="
  M 175.23 189.67
  C 178.40 187.32 178.49 183.17 175.99 180.34
  A 0.48 0.47 86.3 0 1 176.61 179.63
  C 181.12 182.70 181.36 188.70 175.64 190.48
  A 0.46 0.46 0.0 0 1 175.23 189.67
  Z"
/>
<path fill="#fefefe" d="
  M 288.44 264.05
  L 307.80 206.33
  A 1.24 1.23 8.9 0 1 308.96 205.49
  L 349.46 205.15
  A 3.01 3.00 -9.0 0 1 352.34 207.24
  L 378.43 289.85
  A 1.73 1.73 0.0 0 1 376.81 292.10
  Q 361.39 292.36 345.76 292.31
  Q 343.92 292.31 342.69 290.57
  Q 342.41 290.19 342.46 289.72
  Q 343.13 283.61 338.82 279.35
  A 1.21 1.19 -22.2 0 0 337.97 279.00
  L 318.62 279.02
  Q 317.96 279.02 317.80 279.66
  L 315.34 289.90
  Q 314.78 292.25 312.36 292.28
  L 283.02 292.73
  A 2.13 2.12 -82.7 0 1 280.94 290.03
  L 283.41 281.13
  Q 283.93 279.28 282.76 280.81
  C 272.80 293.88 248.83 295.62 234.04 292.86
  C 218.88 290.04 209.31 283.28 207.53 267.52
  Q 207.36 265.94 208.95 265.91
  L 238.50 265.40
  A 2.26 2.26 0.0 0 1 240.63 266.79
  C 241.51 268.90 242.36 271.28 244.66 272.20
  C 252.92 275.53 260.82 265.58 249.25 261.68
  C 240.72 258.80 230.53 257.98 220.93 253.40
  C 208.35 247.41 205.43 234.56 210.35 222.36
  C 218.85 201.28 252.89 198.92 270.82 206.68
  Q 274.74 208.38 277.74 211.54
  C 281.94 215.95 285.43 220.71 285.76 227.04
  A 3.10 3.09 -2.8 0 1 282.80 230.29
  Q 270.46 230.84 257.25 230.78
  C 253.45 230.76 253.47 228.81 251.65 226.28
  A 1.50 1.47 78.5 0 0 250.81 225.71
  C 248.28 225.09 241.82 225.34 240.92 228.77
  Q 240.79 229.29 241.06 229.74
  Q 242.48 232.05 244.77 232.71
  Q 251.08 234.51 266.76 238.52
  Q 270.16 239.38 276.80 243.31
  Q 288.44 250.19 288.08 263.99
  Q 288.05 265.21 288.44 264.05
  Z
  M 337.19 255.95
  L 330.40 225.57
  Q 329.76 222.74 328.49 225.34
  C 323.91 234.68 322.28 245.97 320.02 255.89
  A 2.79 2.79 0.0 0 0 322.93 259.29
  L 335.32 258.45
  Q 337.71 258.28 337.19 255.95
  Z"
/>
<path fill="#fefefe" d="
  M 152.67 279.49
  L 150.08 290.02
  Q 149.53 292.24 147.24 292.28
  L 117.72 292.75
  A 2.07 2.07 0.0 0 1 115.68 290.14
  C 123.32 261.85 133.09 233.87 142.69 206.28
  Q 142.96 205.53 143.75 205.52
  L 184.23 205.15
  A 3.04 3.03 80.9 0 1 187.15 207.27
  L 213.16 289.75
  A 1.81 1.80 80.8 0 1 211.47 292.10
  Q 195.89 292.42 180.26 292.27
  Q 178.61 292.25 177.81 290.99
  Q 177.35 290.26 177.39 288.53
  Q 177.52 283.12 173.65 279.44
  A 1.58 1.55 -22.8 0 0 172.57 279.01
  L 153.28 279.01
  Q 152.79 279.02 152.67 279.49
  Z
  M 170.52 258.19
  Q 172.43 257.88 172.00 256.00
  L 165.00 224.73
  A 0.63 0.63 0.0 0 0 163.84 224.55
  Q 161.41 228.77 160.18 233.55
  Q 157.30 244.76 154.84 255.77
  A 2.79 2.78 -83.6 0 0 157.54 259.16
  Q 164.13 259.21 170.52 258.19
  Z"
/>
<path fill="#fefefe" d="
  M 152.50 333.27
  L 146.87 333.25
  A 1.64 1.63 0.2 0 1 145.24 331.62
  L 145.25 321.72
  A 1.76 1.76 0.0 0 1 147.03 319.96
  L 169.72 320.22
  Q 172.44 320.25 172.38 322.97
  L 171.81 349.67
  Q 171.80 350.19 171.34 350.43
  Q 168.73 351.74 165.24 352.24
  Q 153.17 353.97 142.28 353.56
  C 122.26 352.81 113.59 337.40 115.95 319.03
  C 118.34 300.49 136.01 294.38 152.57 296.34
  C 163.47 297.63 171.38 302.92 170.82 314.81
  A 1.09 1.08 2.1 0 1 169.70 315.84
  L 150.96 315.47
  Q 150.31 315.46 150.10 314.84
  L 149.29 312.48
  Q 149.12 311.98 148.70 311.66
  Q 146.67 310.13 144.65 310.74
  C 138.89 312.49 138.61 317.68 138.50 323.41
  C 138.30 333.72 139.11 341.38 152.49 337.84
  A 0.67 0.67 0.0 0 0 152.99 337.19
  L 153.05 333.83
  A 0.56 0.55 1.0 0 0 152.50 333.27
  Z"
/>
<path fill="#fefefe" d="
  M 308.64 335.84
  L 326.50 336.29
  A 1.46 1.46 0.0 0 1 327.92 337.74
  L 327.96 349.73
  Q 327.96 352.43 325.27 352.44
  L 287.60 352.59
  A 1.61 1.60 -0.2 0 1 285.98 350.99
  L 285.98 299.09
  Q 285.98 296.97 288.09 296.86
  Q 297.51 296.34 306.78 297.27
  A 1.96 1.96 0.0 0 1 308.54 299.24
  L 308.19 335.38
  Q 308.19 335.82 308.64 335.84
  Z"
/>
<path fill="#fefefe" d="
  M 361.16 335.82
  L 379.00 336.28
  A 1.47 1.47 0.0 0 1 380.44 337.75
  L 380.43 351.03
  Q 380.43 351.65 379.83 351.80
  Q 377.07 352.47 373.75 352.49
  Q 356.49 352.57 340.41 352.56
  Q 338.36 352.56 338.37 350.50
  L 338.43 298.73
  A 1.93 1.93 0.0 0 1 340.28 296.81
  Q 349.37 296.43 358.32 297.14
  Q 361.14 297.36 361.11 300.18
  L 360.76 335.41
  Q 360.75 335.81 361.16 335.82
  Z"
/>
<path fill="#fefefe" d="
  M 247.95 352.17
  L 248.77 297.48
  A 0.34 0.34 0.0 0 1 249.12 297.15
  L 270.86 297.58
  A 0.34 0.34 0.0 0 1 271.19 297.92
  L 271.21 352.18
  A 0.34 0.34 0.0 0 1 270.87 352.52
  L 248.29 352.52
  A 0.34 0.34 0.0 0 1 247.95 352.17
  Z"
/>
<path fill="#fefefe" d="
  M 228.00 324.62
  Q 233.04 326.80 234.26 330.72
  Q 236.61 338.24 236.47 343.76
  Q 236.36 347.95 237.80 350.93
  A 0.74 0.73 -33.2 0 1 237.61 351.81
  Q 236.57 352.70 234.87 352.68
  Q 225.76 352.60 217.49 352.30
  Q 215.86 352.24 215.61 350.63
  L 213.31 335.69
  A 1.16 1.12 -78.1 0 0 212.84 334.94
  Q 210.69 333.42 207.97 333.74
  Q 207.49 333.79 207.49 334.27
  L 207.46 350.55
  Q 207.46 352.57 205.45 352.57
  L 185.79 352.57
  Q 185.00 352.58 185.00 351.78
  L 185.00 298.74
  A 1.42 1.42 0.0 0 1 186.41 297.32
  Q 203.04 297.20 218.25 297.34
  C 227.34 297.42 236.57 300.60 236.26 311.53
  Q 236.01 320.10 227.98 323.93
  Q 227.23 324.29 228.00 324.62
  Z
  M 207.30 311.27
  L 207.28 318.73
  A 2.18 2.18 0.0 0 0 209.46 320.92
  L 210.11 320.92
  A 6.97 5.45 0.1 0 0 217.09 315.48
  L 217.09 314.56
  A 6.97 5.45 0.1 0 0 210.13 309.10
  L 209.48 309.10
  A 2.18 2.18 0.0 0 0 207.30 311.27
  Z"
/>
<path fill="#db1344" d="
  M 200.52 361.78
  L 296.49 361.76
  A 0.49 0.49 0.0 0 1 296.86 361.92
  L 316.61 383.45
  A 0.49 0.49 0.0 0 1 316.61 384.11
  L 296.67 405.61
  A 0.49 0.49 0.0 0 1 296.31 405.77
  L 200.66 405.82
  A 0.49 0.49 0.0 0 1 200.30 405.66
  L 180.35 384.08
  A 0.49 0.49 0.0 0 1 180.35 383.42
  L 200.16 361.94
  A 0.49 0.49 0.0 0 1 200.52 361.78
  Z
  M 288.75 386.73
  C 291.39 380.61 289.27 373.72 282.46 372.16
  C 272.96 369.98 266.36 378.60 269.97 387.26
  C 273.63 396.05 282.42 392.60 289.89 393.05
  Q 290.51 393.09 290.52 392.47
  L 290.54 387.94
  A 0.46 0.45 -83.8 0 0 290.19 387.49
  L 288.98 387.19
  Q 288.59 387.09 288.75 386.73
  Z
  M 221.33 381.78
  C 225.23 378.52 223.65 372.72 218.49 372.47
  Q 213.80 372.25 205.50 372.71
  Q 204.98 372.74 204.98 373.26
  L 205.00 391.76
  Q 205.00 392.79 206.03 392.80
  Q 210.74 392.84 215.75 392.74
  C 219.74 392.66 222.98 392.01 223.98 387.92
  C 224.57 385.48 223.53 383.65 221.40 382.49
  Q 220.84 382.19 221.33 381.78
  Z
  M 253.47 382.48
  A 0.35 0.34 -52.8 0 1 253.39 381.87
  C 257.27 379.13 256.28 372.98 251.50 372.55
  Q 246.32 372.10 237.75 372.76
  Q 237.26 372.80 237.26 373.29
  L 237.32 391.94
  A 0.87 0.86 89.7 0 0 238.19 392.81
  C 242.50 392.78 251.30 393.79 254.51 391.06
  C 257.25 388.74 257.37 383.90 253.47 382.48
  Z"
/>
<rect fill="#fefefe" x="100.91" y="362.52" width="89.08" height="2.44" rx="0.34"/>
<rect fill="#fefefe" x="306.65" y="362.54" width="89.24" height="2.42" rx="0.60"/>
<path fill="#fefefe" d="
  M 288.98 387.19
  L 290.19 387.49
  A 0.46 0.45 -83.8 0 1 290.54 387.94
  L 290.52 392.47
  Q 290.51 393.09 289.89 393.05
  C 282.42 392.60 273.63 396.05 269.97 387.26
  C 266.36 378.60 272.96 369.98 282.46 372.16
  C 289.27 373.72 291.39 380.61 288.75 386.73
  Q 288.59 387.09 288.98 387.19
  Z
  M 279.3169 388.3777
  A 5.84 2.88 91.6 0 0 282.3589 382.6204
  A 5.84 2.88 91.6 0 0 279.6431 376.7023
  A 5.84 2.88 91.6 0 0 276.6011 382.4596
  A 5.84 2.88 91.6 0 0 279.3169 388.3777
  Z"
/>
<path fill="#fefefe" d="
  M 221.40 382.49
  C 223.53 383.65 224.57 385.48 223.98 387.92
  C 222.98 392.01 219.74 392.66 215.75 392.74
  Q 210.74 392.84 206.03 392.80
  Q 205.00 392.79 205.00 391.76
  L 204.98 373.26
  Q 204.98 372.74 205.50 372.71
  Q 213.80 372.25 218.49 372.47
  C 223.65 372.72 225.23 378.52 221.33 381.78
  Q 220.84 382.19 221.40 382.49
  Z
  M 212.57 377.39
  L 212.55 380.31
  A 0.66 0.66 0.0 0 0 213.20 380.98
  L 213.77 380.98
  A 2.43 1.99 0.5 0 0 216.22 379.02
  L 216.22 378.76
  A 2.43 1.99 0.5 0 0 213.81 376.74
  L 213.24 376.74
  A 0.66 0.66 0.0 0 0 212.57 377.39
  Z
  M 213.06 384.66
  L 212.71 387.36
  A 0.76 0.76 0.0 0 0 213.37 388.21
  L 213.91 388.28
  A 2.31 1.95 7.3 0 0 216.45 386.64
  L 216.50 386.30
  A 2.31 1.95 7.3 0 0 214.45 384.07
  L 213.91 384.00
  A 0.76 0.76 0.0 0 0 213.06 384.66
  Z"
/>
<path fill="#fefefe" d="
  M 253.47 382.48
  C 257.37 383.90 257.25 388.74 254.51 391.06
  C 251.30 393.79 242.50 392.78 238.19 392.81
  A 0.87 0.86 89.7 0 1 237.32 391.94
  L 237.26 373.29
  Q 237.26 372.80 237.75 372.76
  Q 246.32 372.10 251.50 372.55
  C 256.28 372.98 257.27 379.13 253.39 381.87
  A 0.35 0.34 -52.8 0 0 253.47 382.48
  Z
  M 245.00 377.35
  L 244.98 380.39
  A 0.62 0.62 0.0 0 0 245.60 381.01
  L 245.84 381.02
  A 2.54 1.82 0.3 0 0 248.39 379.21
  L 248.39 378.57
  A 2.54 1.82 0.3 0 0 245.86 376.74
  L 245.62 376.73
  A 0.62 0.62 0.0 0 0 245.00 377.35
  Z
  M 245.36 384.66
  L 245.13 387.45
  A 0.73 0.73 0.0 0 0 245.80 388.24
  L 246.25 388.28
  A 2.29 1.99 4.8 0 0 248.70 386.49
  L 248.73 386.21
  A 2.29 1.99 4.8 0 0 246.61 384.03
  L 246.15 383.99
  A 0.73 0.73 0.0 0 0 245.36 384.66
  Z"
/>
<path fill="#db1344" d="
  M 212.57 377.39
  A 0.66 0.66 0.0 0 1 213.24 376.74
  L 213.81 376.74
  A 2.43 1.99 0.5 0 1 216.22 378.76
  L 216.22 379.02
  A 2.43 1.99 0.5 0 1 213.77 380.98
  L 213.20 380.98
  A 0.66 0.66 0.0 0 1 212.55 380.31
  L 212.57 377.39
  Z"
/>
<path fill="#db1344" d="
  M 245.00 377.35
  A 0.62 0.62 0.0 0 1 245.62 376.73
  L 245.86 376.74
  A 2.54 1.82 0.3 0 1 248.39 378.57
  L 248.39 379.21
  A 2.54 1.82 0.3 0 1 245.84 381.02
  L 245.60 381.01
  A 0.62 0.62 0.0 0 1 244.98 380.39
  L 245.00 377.35
  Z"
/>
<ellipse fill="#db1344" cx="0.00" cy="0.00" transform="translate(279.48,382.54) rotate(91.6)" rx="5.84" ry="2.88"/>
<path fill="#fefefe" d="
  M 125.74 386.04
  L 125.69 389.24
  A 0.56 0.55 -90.0 0 0 126.24 389.80
  L 130.75 389.83
  A 0.46 0.46 0.0 0 1 130.75 390.75
  L 125.21 390.78
  Q 124.64 390.78 124.64 390.21
  L 124.71 379.90
  Q 124.71 379.25 125.36 379.26
  L 131.01 379.36
  A 0.49 0.48 -44.4 0 1 131.00 380.33
  L 126.20 380.33
  Q 125.71 380.32 125.71 380.81
  L 125.70 384.17
  Q 125.70 384.66 126.18 384.63
  Q 128.68 384.47 129.50 384.57
  Q 130.05 384.64 129.91 385.26
  Q 129.82 385.66 129.41 385.65
  L 126.21 385.58
  Q 125.74 385.57 125.74 386.04
  Z"
/>
<path fill="#fefefe" d="
  M 143.79 389.53
  A 2.01 2.00 -20.4 0 0 144.49 388.01
  L 144.51 379.53
  A 0.34 0.33 7.4 0 1 144.93 379.21
  Q 145.09 379.26 145.26 379.30
  Q 145.44 379.35 145.45 379.55
  Q 145.59 383.40 145.50 387.26
  C 145.40 392.25 139.38 392.08 139.23 388.24
  Q 139.06 384.00 139.14 379.77
  A 0.49 0.49 0.0 0 1 139.90 379.37
  Q 140.11 379.52 140.07 379.99
  Q 139.73 384.25 140.19 388.48
  Q 140.24 388.93 140.56 389.26
  Q 142.14 390.93 143.79 389.53
  Z"
/>
<path fill="#fefefe" d="
  M 159.42 382.25
  Q 158.39 379.15 155.33 380.77
  A 1.52 1.52 0.0 0 0 155.31 383.44
  L 159.01 385.49
  A 2.47 2.46 -75.0 0 1 160.29 387.72
  C 160.18 391.61 155.00 392.17 153.72 388.77
  Q 153.46 388.09 153.85 387.73
  Q 154.30 387.31 154.52 387.89
  C 155.34 390.10 157.92 391.41 159.12 388.70
  A 2.00 2.00 0.0 0 0 158.12 386.07
  C 156.60 385.37 154.69 384.78 154.04 383.21
  C 152.67 379.91 157.15 377.81 159.52 380.23
  Q 160.62 381.36 160.08 382.31
  Q 159.68 383.02 159.42 382.25
  Z"
/>
<path fill="#fefefe" d="
  M 333.75 390.69
  L 337.00 390.67
  A 0.50 0.49 -4.8 0 1 337.49 391.08
  Q 337.58 391.62 337.14 391.66
  Q 334.18 391.89 331.52 391.62
  A 0.59 0.58 -59.9 0 1 331.24 390.56
  C 332.92 389.36 337.78 384.38 336.22 382.11
  Q 335.43 380.95 333.35 380.87
  A 0.97 0.97 0.0 0 0 332.39 382.14
  Q 332.64 382.94 331.88 383.37
  A 0.49 0.48 -5.7 0 1 331.18 382.80
  Q 332.20 379.61 334.91 380.12
  C 340.77 381.22 335.48 387.94 333.42 389.86
  Q 332.54 390.69 333.75 390.69
  Z"
/>
<path fill="#fefefe" d="
  M 351.9147 388.9354
  A 2.84 2.84 0.0 0 1 349.0698 391.7704
  L 348.5698 391.7696
  A 2.84 2.84 0.0 0 1 345.7348 388.9246
  L 345.7453 382.9046
  A 2.84 2.84 0.0 0 1 348.5902 380.0696
  L 349.0902 380.0704
  A 2.84 2.84 0.0 0 1 351.9252 382.9154
  L 351.9147 388.9354
  Z
  M 350.8751 383.0036
  A 1.96 1.96 0.0 0 0 348.9186 381.0402
  L 348.7186 381.0398
  A 1.96 1.96 0.0 0 0 346.7551 382.9964
  L 346.7449 388.8764
  A 1.96 1.96 0.0 0 0 348.7014 390.8398
  L 348.9014 390.8402
  A 1.96 1.96 0.0 0 0 350.8649 388.8836
  L 350.8751 383.0036
  Z"
/>
<path fill="#fefefe" d="
  M 362.10 390.71
  L 365.63 390.71
  A 0.29 0.29 0.0 0 1 365.92 390.97
  L 365.99 391.46
  Q 366.02 391.69 365.79 391.69
  L 360.24 391.73
  A 0.68 0.68 0.0 0 1 359.84 390.50
  Q 363.58 387.86 365.02 383.45
  A 1.94 1.94 0.0 0 0 362.29 381.12
  Q 361.09 381.74 360.66 382.94
  A 0.31 0.31 0.0 0 1 360.06 382.86
  C 359.70 379.75 363.73 379.41 365.52 381.29
  Q 365.92 381.71 365.89 382.29
  Q 365.65 387.03 361.84 389.96
  A 0.42 0.42 0.0 0 0 362.10 390.71
  Z"
/>
<path fill="#fefefe" d="
  M 379.58 386.07
  C 382.15 389.03 379.43 393.33 375.90 391.40
  Q 374.26 390.51 374.60 388.91
  A 0.40 0.40 0.0 0 1 375.34 388.81
  L 376.06 390.22
  A 1.79 1.79 0.0 0 0 379.35 390.00
  Q 379.92 388.36 379.18 387.03
  Q 378.96 386.63 378.52 386.51
  L 377.15 386.15
  A 0.34 0.34 0.0 0 1 377.20 385.49
  Q 380.07 385.17 379.46 382.28
  A 1.77 1.76 71.7 0 0 377.00 381.04
  Q 375.81 381.59 375.48 382.84
  Q 375.32 383.45 374.78 383.14
  Q 374.63 383.06 374.54 382.90
  Q 374.48 382.76 374.51 382.57
  C 375.32 378.65 381.32 379.32 380.43 384.15
  A 1.06 1.04 71.1 0 1 380.17 384.69
  L 379.59 385.31
  Q 379.25 385.68 379.58 386.07
  Z"
/>
<path fill="#db1344" d="
  M 213.06 384.66
  A 0.76 0.76 0.0 0 1 213.91 384.00
  L 214.45 384.07
  A 2.31 1.95 7.3 0 1 216.50 386.30
  L 216.45 386.64
  A 2.31 1.95 7.3 0 1 213.91 388.28
  L 213.37 388.21
  A 0.76 0.76 0.0 0 1 212.71 387.36
  L 213.06 384.66
  Z"
/>
<path fill="#db1344" d="
  M 245.36 384.66
  A 0.73 0.73 0.0 0 1 246.15 383.99
  L 246.61 384.03
  A 2.29 1.99 4.8 0 1 248.73 386.21
  L 248.70 386.49
  A 2.29 1.99 4.8 0 1 246.25 388.28
  L 245.80 388.24
  A 0.73 0.73 0.0 0 1 245.13 387.45
  L 245.36 384.66
  Z"
/>
<rect fill="#fefefe" x="100.91" y="405.02" width="89.06" height="2.46" rx="0.44"/>
<rect fill="#fefefe" x="306.73" y="405.02" width="89.12" height="2.46" rx="0.44"/>
</svg>
